<?xml version="1.0" standalone="no"?>
<!DOCTYPE svg PUBLIC "-//W3C//DTD SVG 20010904//EN"
 "http://www.w3.org/TR/2001/REC-SVG-20010904/DTD/svg10.dtd">
<svg version="1.0" xmlns="http://www.w3.org/2000/svg"
 width="436.000000pt" height="156.000000pt" viewBox="0 0 436.000000 156.000000"
 preserveAspectRatio="xMidYMid meet">

<g transform="translate(0.000000,156.000000) scale(0.100000,-0.100000)"
fill="#000000" stroke="none">
<path d="M2465 1474 c-27 -14 -80 -55 -116 -90 l-66 -66 -72 8 c-54 5 -71 10
-67 20 8 20 -10 26 -24 9 -17 -21 -94 -21 -87 0 9 21 -8 28 -24 9 -9 -11 -29
-15 -75 -13 -41 2 -69 -2 -79 -11 -14 -12 -1 -19 102 -55 112 -40 193 -79 193
-94 0 -4 -27 -33 -61 -66 -33 -33 -76 -85 -96 -117 l-35 -56 -75 5 c-88 7 -90
-1 -12 -43 39 -22 56 -40 82 -86 17 -32 36 -58 40 -58 5 0 7 32 5 71 l-4 71
71 48 c38 27 92 71 119 99 l49 50 23 -31 c24 -32 59 -117 90 -220 16 -54 19
-57 35 -42 15 13 17 27 12 84 -4 45 -2 69 6 74 17 11 14 39 -4 32 -11 -4 -15
2 -15 23 0 16 7 34 15 41 21 17 19 33 -4 25 -16 -5 -19 2 -25 67 l-7 72 65 65
c86 88 145 202 104 201 -7 0 -35 -12 -63 -26z"/>
<path d="M1790 596 c0 -18 6 -25 23 -28 20 -3 22 -9 25 -78 l3 -74 -26 24
c-20 18 -38 25 -69 25 -86 0 -135 -68 -136 -187 0 -84 20 -136 65 -167 43 -29
113 -26 149 8 23 22 23 22 29 2 4 -18 13 -21 66 -21 58 0 61 1 61 25 0 20 -5
25 -25 25 l-25 0 0 235 0 235 -70 0 c-67 0 -70 -1 -70 -24z m28 -212 c20 -14
22 -23 22 -110 l0 -95 -35 -15 c-30 -12 -40 -12 -63 -2 -54 26 -67 154 -21
212 24 30 63 34 97 10z"/>
<path d="M3480 585 c0 -35 0 -35 45 -35 45 0 45 0 45 35 0 35 0 35 -45 35 -45
0 -45 0 -45 -35z"/>
<path d="M20 566 c0 -18 6 -25 23 -28 25 -3 30 -18 98 -276 l42 -163 41 3 41
3 55 170 c31 93 59 165 62 160 3 -6 29 -83 57 -173 l52 -163 41 3 42 3 17 65
c96 370 96 370 120 370 14 0 19 7 19 25 0 25 -1 25 -90 25 -88 0 -90 -1 -90
-24 0 -17 8 -26 28 -32 l29 -9 -33 -138 c-34 -146 -44 -179 -50 -162 -1 6 -28
90 -59 188 l-56 177 -33 0 c-28 0 -33 -4 -43 -37 -33 -117 -96 -309 -103 -316
-4 -5 -22 54 -40 130 -18 76 -35 143 -37 149 -2 6 7 14 21 18 19 5 26 13 26
31 0 25 -1 25 -90 25 -89 0 -90 0 -90 -24z"/>
<path d="M2680 565 c0 -18 5 -25 19 -25 10 0 23 -6 28 -12 8 -11 39 -123 106
-385 11 -42 12 -43 52 -43 l41 0 55 170 c29 93 57 170 60 170 4 0 10 -12 13
-27 4 -16 28 -92 53 -170 l47 -143 41 0 41 0 17 68 c70 282 94 357 115 367 13
6 22 19 22 32 0 22 -3 23 -90 23 -89 0 -90 0 -90 -24 0 -19 7 -26 30 -31 23
-5 29 -11 26 -23 -3 -10 -17 -69 -31 -132 -34 -148 -41 -169 -48 -150 -3 8
-27 80 -52 160 -68 212 -63 202 -99 198 l-31 -3 -55 -177 c-30 -98 -57 -178
-60 -178 -3 0 -20 61 -38 135 -18 74 -35 141 -38 149 -4 10 4 16 25 21 24 5
31 12 31 31 0 24 -1 24 -95 24 -95 0 -95 0 -95 -25z"/>
<path d="M845 452 c-50 -17 -50 -17 -53 -64 -3 -47 -3 -48 27 -48 21 0 31 5
31 15 0 24 38 55 68 55 39 -1 62 -22 69 -64 l6 -36 -48 0 c-132 0 -205 -74
-163 -165 26 -57 111 -72 171 -31 35 24 36 24 42 5 5 -16 16 -19 61 -19 50 0
54 2 54 24 0 15 -7 26 -20 29 -19 5 -20 14 -20 120 0 108 -2 117 -24 144 -25
30 -83 53 -127 53 -13 -1 -46 -9 -74 -18z m145 -225 c0 -41 -25 -66 -73 -74
-30 -4 -37 -2 -52 20 -30 46 8 86 83 87 41 0 42 -1 42 -33z"/>
<path d="M1360 459 c-14 -6 -35 -20 -47 -31 l-23 -21 0 26 c0 27 -1 27 -70 27
-67 0 -70 -1 -70 -24 0 -19 7 -26 30 -31 l31 -7 -3 -121 c-3 -118 -4 -122 -25
-125 -17 -3 -23 -10 -23 -28 0 -24 2 -24 85 -24 83 0 85 1 85 24 0 15 -7 26
-20 29 -18 5 -20 14 -20 110 0 98 2 107 22 121 30 22 81 20 101 -2 14 -15 17
-40 17 -125 0 -100 -1 -107 -20 -107 -15 0 -20 -7 -20 -25 0 -25 1 -25 91 -25
88 0 90 1 87 23 -2 14 -11 23 -25 25 -22 3 -23 8 -23 95 -1 113 -11 163 -42
194 -28 27 -82 37 -118 22z"/>
<path d="M2136 460 c-35 -11 -73 -45 -94 -85 -24 -45 -22 -161 4 -205 42 -72
144 -100 234 -64 42 17 46 24 30 54 -9 16 -13 17 -47 4 -49 -17 -68 -17 -102
1 -30 15 -58 66 -46 84 4 7 48 11 111 11 l104 0 0 48 c0 54 -24 108 -60 134
-31 21 -95 30 -134 18z m97 -78 c9 -8 17 -28 17 -44 l0 -28 -70 0 c-76 0 -79
3 -54 51 24 48 66 56 107 21z"/>
<path d="M2584 460 c-12 -5 -29 -18 -37 -30 l-15 -21 -6 26 c-6 24 -10 25 -71
25 -62 0 -65 -1 -65 -24 0 -17 7 -26 25 -30 25 -6 25 -6 25 -130 0 -122 -1
-125 -22 -128 -15 -2 -24 -11 -26 -25 -3 -22 -1 -23 92 -23 96 0 96 0 96 25 0
20 -5 25 -25 25 l-25 0 0 104 c0 118 7 131 70 131 36 0 38 2 44 34 3 19 3 38
0 43 -6 10 -32 9 -60 -2z"/>
<path d="M3751 457 c-47 -18 -71 -51 -71 -99 0 -51 30 -81 106 -104 66 -20 94
-39 94 -64 0 -27 -22 -40 -70 -40 -49 0 -70 13 -70 42 0 13 -8 18 -30 18 -29
0 -30 -1 -30 -48 l0 -48 45 -12 c94 -25 185 -9 219 39 9 13 16 41 16 62 0 51
-32 80 -123 109 -51 16 -73 28 -75 41 -5 27 27 57 60 57 27 0 68 -30 68 -50 0
-5 14 -10 30 -10 29 0 30 2 30 44 0 41 -3 45 -32 55 -51 18 -130 22 -167 8z"/>
<path d="M4111 448 c-114 -61 -125 -253 -19 -331 34 -26 126 -34 170 -17 52
21 58 28 46 55 -10 23 -12 23 -52 9 -23 -9 -55 -13 -73 -9 -37 7 -73 47 -73
81 0 24 1 24 110 24 l110 0 0 43 c0 52 -30 120 -62 141 -44 29 -108 30 -157 4z
m124 -71 c8 -12 15 -32 15 -44 0 -22 -4 -23 -70 -23 -55 0 -70 3 -70 15 0 70
87 106 125 52z"/>
<path d="M3430 436 c0 -19 7 -26 30 -31 l31 -7 -3 -121 c-3 -118 -4 -122 -25
-125 -17 -3 -23 -10 -23 -28 0 -24 1 -24 90 -24 89 0 90 0 90 24 0 18 -6 25
-22 28 -23 3 -23 6 -26 156 l-3 152 -69 0 c-67 0 -70 -1 -70 -24z"/>
</g>
</svg>
